<svg width="800" height="500" xmlns="http://www.w3.org/2000/svg"><path d="M2970 1294 2969 1295 2963 1295 2962 1296 2958 1296 2957 1297 2954 1297 2953 1298 2951 1298 2950 1299 2948 1299 2947 1300 2946 1300 2945 1301 2943 1301 2942 1302 2940 1302 2939 1303 2938 1303 2937 1304 2936 1304 2935 1305 2934 1305 2932 1307 2931 1307 2929 1309 2928 1309 2926 1311 2925 1311 2924 1312 2923 1312 2921 1314 2920 1314 2913 1321 2912 1321 2912 1322 2904 1330 2904 1331 2902 1333 2902 1334 2899 1337 2899 1338 2898 1339 2898 1340 2896 1342 2896 1343 2895 1344 2895 1345 2894 1346 2894 1347 2893 1348 2893 1350 2892 1351 2892 1352 2891 1353 2891 1354 2890 1355 2890 1357 2889 1358 2889 1360 2888 1361 2888 1363 2887 1364 2887 1367 2886 1368 2886 1370 2885 1371 2885 1376 2884 1377 2884 1385 2883 1386 2883 1396 2884 1397 2884 1405 2885 1406 2885 1410 2886 1411 2886 1414 2887 1415 2887 1418 2888 1419 2888 1421 2889 1422 2889 1424 2890 1425 2890 1426 2891 1427 2891 1429 2892 1430 2892 1432 2893 1433 2893 1434 2894 1435 2894 1436 2895 1437 2895 1438 2896 1439 2896 1440 2898 1442 2898 1443 2900 1445 2900 1446 2902 1448 2902 1449 2905 1452 2905 1453 2911 1459 2911 1460 2912 1461 2913 1461 2920 1468 2921 1468 2925 1472 2926 1472 2928 1474 2929 1474 2931 1476 2932 1476 2933 1477 2934 1477 2936 1479 2937 1479 2938 1480 2940 1480 2941 1481 2942 1481 2943 1482 2945 1482 2946 1483 2948 1483 2949 1484 2950 1484 2951 1485 2953 1485 2954 1486 2956 1486 2957 1487 2960 1487 2961 1488 2965 1488 2966 1489 2971 1489 2972 1490 2982 1490 2983 1491 2985 1491 2986 1490 2995 1490 2996 1489 3004 1489 3005 1488 3008 1488 3009 1487 3010 1487 3011 1486 3012 1487 3013 1486 3014 1486 3015 1485 3016 1485 3017 1484 3019 1484 3020 1483 3022 1483 3023 1482 3025 1482 3027 1480 3028 1480 3029 1479 3031 1479 3032 1478 3033 1478 3035 1476 3036 1476 3037 1475 3038 1475 3041 1472 3042 1472 3045 1469 3046 1469 3051 1464 3052 1464 3053 1463 3053 1462 3055 1460 3056 1460 3057 1459 3057 1458 3062 1453 3062 1452 3065 1449 3065 1448 3067 1446 3067 1445 3068 1444 3068 1443 3070 1441 3070 1440 3071 1439 3071 1438 3072 1437 3072 1436 3073 1435 3073 1433 3075 1431 3075 1429 3076 1428 3076 1427 3077 1426 3077 1423 3078 1422 3078 1420 3079 1419 3079 1416 3080 1415 3080 1411 3081 1410 3081 1405 3082 1404 3082 1382 3081 1381 3081 1375 3080 1374 3080 1370 3079 1369 3079 1367 3078 1366 3078 1363 3077 1362 3077 1359 3076 1358 3076 1357 3075 1356 3075 1354 3074 1353 3074 1352 3073 1351 3073 1350 3071 1348 3071 1347 3070 1346 3070 1345 3069 1344 3069 1343 3067 1341 3067 1340 3066 1339 3066 1338 3064 1336 3064 1335 3061 1332 3061 1331 3056 1326 3056 1325 3055 1325 3045 1315 3044 1315 3041 1312 3040 1312 3038 1310 3037 1310 3035 1308 3034 1308 3033 1307 3032 1307 3031 1306 3030 1306 3029 1305 3028 1305 3027 1304 3026 1304 3025 1303 3024 1303 3023 1302 3022 1302 3021 1301 3020 1301 3019 1300 3016 1300 3015 1299 3013 1299 3012 1298 3010 1298 3009 1297 3007 1297 3006 1296 3002 1296 3001 1295 2996 1295 2995 1294 "/></svg>